<?xml version="1.0" encoding="utf-8"?>
<!-- Generator: Adobe Illustrator 16.0.4, SVG Export Plug-In . SVG Version: 6.00 Build 0)  -->
<!DOCTYPE svg PUBLIC "-//W3C//DTD SVG 1.0//EN" "http://www.w3.org/TR/2001/REC-SVG-20010904/DTD/svg10.dtd">
<svg version="1.0" id="Layer_1" xmlns="http://www.w3.org/2000/svg" xmlns:xlink="http://www.w3.org/1999/xlink" x="0px" y="0px"
	 width="253.379px" height="71.336px" viewBox="0 0 253.379 71.336" enable-background="new 0 0 253.379 71.336"
	 xml:space="preserve">
<g>
	<rect x="18.75" y="59.229" fill="#FFE9AC" width="50" height="10"/>
	<polygon fill="#B8A3D3" points="18.419,11.679 69.75,11.229 69.357,69.357 66.32,56.062 	"/>
	<rect x="1.75" y="11.229" fill="#FFB7C9" width="17" height="58"/>
	<rect x="1.75" y="2.229" fill="#FFE9AC" width="67" height="9"/>
	<polygon fill="#3BE2CA" points="18.75,59.229 67.001,59.229 63.856,51.26 59.242,43.236 51.902,33.91 40.196,22.967 28.115,15.174 
		18.753,11.679 	"/>
	<g>
		<path fill="#FFFFFF" d="M69.357,71.107H1.75c-0.967,0-1.75-0.783-1.75-1.75V1.75C0,0.783,0.783,0,1.75,0h67.607
			c0.967,0,1.75,0.783,1.75,1.75v67.607C71.107,70.324,70.324,71.107,69.357,71.107z M3.5,67.607h64.107V3.5H3.5V67.607z"/>
		<path fill="#FFFFFF" d="M69.357,13.429H1.75c-0.967,0-1.75-0.784-1.75-1.75s0.783-1.75,1.75-1.75h67.607
			c0.967,0,1.75,0.784,1.75,1.75S70.324,13.429,69.357,13.429z"/>
		<path fill="#FFFFFF" d="M18.652,71.094c-0.967,0-1.75-0.783-1.75-1.75V12.215c0-0.467,0.187-0.914,0.519-1.243
			c0.328-0.325,0.771-0.507,1.231-0.507c0.006,0,0.012,0,0.017,0c0.499,0.005,12.429,0.328,30.958,18.559
			c21.261,20.918,20.897,39.483,20.872,40.263c-0.031,0.967-0.839,1.739-1.807,1.691c-0.966-0.032-1.724-0.841-1.691-1.807
			c0.005-0.172,0.254-17.895-19.829-37.651c-13.462-13.246-23.013-16.5-26.77-17.297v55.121
			C20.402,70.311,19.619,71.094,18.652,71.094z"/>
		<path fill="#FFFFFF" d="M67.001,61.092H18.652c-0.967,0-1.75-0.783-1.75-1.75s0.783-1.75,1.75-1.75h48.349
			c0.967,0,1.75,0.783,1.75,1.75S67.968,61.092,67.001,61.092z"/>
	</g>
	<g>
		<path fill="#3BE2CA" d="M164.278,68.001c0.102,0.105,0.153,0.236,0.153,0.392v1.908c0,0.21-0.094,0.372-0.279,0.486
			c-0.588,0.366-1.233,0.549-1.936,0.549c-0.594,0-1.143-0.146-1.646-0.437s-0.903-0.684-1.197-1.179s-0.44-1.037-0.44-1.625
			s0.146-1.129,0.44-1.624s0.693-0.889,1.197-1.18s1.053-0.437,1.646-0.437c0.595,0,1.11,0.12,1.549,0.36
			c0.09,0.048,0.157,0.111,0.202,0.189c0.045,0.077,0.067,0.161,0.067,0.252c0,0.149-0.05,0.28-0.148,0.392
			c-0.099,0.11-0.221,0.166-0.364,0.166c-0.09,0-0.189-0.023-0.297-0.072c-0.324-0.138-0.66-0.207-1.009-0.207
			c-0.384,0-0.737,0.098-1.062,0.293s-0.58,0.457-0.77,0.787s-0.283,0.69-0.283,1.08c0,0.391,0.094,0.75,0.283,1.08
			s0.445,0.593,0.77,0.787c0.324,0.195,0.678,0.293,1.062,0.293c0.168,0,0.349-0.015,0.54-0.045c0.192-0.03,0.36-0.069,0.505-0.117
			v-1.17h-0.847c-0.156,0-0.286-0.051-0.392-0.153c-0.104-0.102-0.157-0.23-0.157-0.387s0.053-0.285,0.157-0.387
			c0.105-0.103,0.235-0.153,0.392-0.153h1.477C164.047,67.844,164.176,67.896,164.278,68.001z"/>
		<path fill="#3BE2CA" d="M172.347,70.553c0.045,0.078,0.067,0.159,0.067,0.243c0,0.108-0.036,0.207-0.108,0.297
			c-0.09,0.108-0.228,0.162-0.414,0.162c-0.144,0-0.275-0.033-0.396-0.099c-0.433-0.246-0.648-0.747-0.648-1.503
			c0-0.217-0.07-0.388-0.211-0.514c-0.142-0.126-0.344-0.188-0.607-0.188h-1.684v1.746c0,0.161-0.043,0.294-0.13,0.396
			c-0.088,0.103-0.203,0.153-0.347,0.153c-0.175,0-0.326-0.053-0.455-0.158c-0.129-0.104-0.193-0.235-0.193-0.391v-5.202
			c0-0.156,0.053-0.287,0.157-0.392c0.105-0.105,0.236-0.157,0.392-0.157h2.593c0.312,0,0.605,0.084,0.882,0.252
			c0.275,0.168,0.496,0.398,0.661,0.692s0.248,0.624,0.248,0.99c0,0.3-0.081,0.593-0.243,0.878c-0.162,0.284-0.372,0.511-0.63,0.679
			c0.378,0.265,0.585,0.618,0.621,1.062c0.018,0.096,0.026,0.188,0.026,0.279c0.024,0.186,0.048,0.319,0.072,0.4
			c0.023,0.081,0.078,0.143,0.162,0.185C172.24,70.412,172.302,70.475,172.347,70.553z M170.632,67.871
			c0.102-0.103,0.186-0.238,0.252-0.41c0.066-0.171,0.099-0.355,0.099-0.553c0-0.168-0.032-0.323-0.099-0.464
			s-0.15-0.253-0.252-0.338c-0.102-0.084-0.207-0.126-0.314-0.126h-1.972v2.043h1.972C170.425,68.023,170.53,67.973,170.632,67.871z
			"/>
		<path fill="#3BE2CA" d="M180.101,70.76c0,0.156-0.051,0.283-0.153,0.383c-0.102,0.099-0.219,0.148-0.351,0.148
			c-0.108,0-0.206-0.033-0.293-0.1c-0.087-0.065-0.154-0.155-0.202-0.27l-0.468-1.089h-2.683l-0.468,1.098
			c-0.042,0.114-0.106,0.203-0.193,0.266c-0.087,0.063-0.182,0.095-0.283,0.095c-0.156,0-0.274-0.042-0.355-0.126
			s-0.122-0.198-0.122-0.342c0-0.055,0.009-0.111,0.027-0.172l2.241-5.382c0.048-0.12,0.119-0.213,0.216-0.278
			c0.096-0.066,0.204-0.094,0.324-0.081c0.107,0,0.208,0.031,0.301,0.094c0.093,0.063,0.161,0.152,0.203,0.266l2.214,5.274
			C180.085,70.622,180.101,70.694,180.101,70.76z M176.393,68.798h1.8l-0.909-2.106L176.393,68.798z"/>
		<path fill="#3BE2CA" d="M186.05,65.221c0.275,0.183,0.497,0.429,0.666,0.737c0.167,0.31,0.252,0.646,0.252,1.013
			c0,0.36-0.085,0.696-0.252,1.008c-0.169,0.312-0.391,0.56-0.666,0.743c-0.276,0.183-0.567,0.274-0.873,0.274h-1.566v1.701
			c0,0.161-0.048,0.294-0.144,0.396c-0.097,0.103-0.223,0.153-0.378,0.153c-0.15,0-0.273-0.053-0.369-0.158
			c-0.097-0.104-0.145-0.235-0.145-0.391v-5.202c0-0.156,0.053-0.287,0.157-0.392c0.105-0.105,0.236-0.157,0.392-0.157h2.053
			C185.482,64.946,185.773,65.037,186.05,65.221z M185.514,67.826c0.111-0.097,0.201-0.221,0.271-0.374
			c0.068-0.152,0.104-0.313,0.104-0.481s-0.035-0.328-0.104-0.481c-0.069-0.153-0.159-0.275-0.271-0.369
			c-0.111-0.093-0.224-0.14-0.337-0.14h-1.566v1.989h1.566C185.29,67.97,185.402,67.922,185.514,67.826z"/>
		<path fill="#3BE2CA" d="M194.68,65.099c0.103,0.103,0.153,0.234,0.153,0.396v5.202c0,0.155-0.054,0.286-0.162,0.391
			c-0.107,0.105-0.246,0.158-0.414,0.158c-0.149,0-0.278-0.053-0.387-0.158c-0.108-0.104-0.162-0.235-0.162-0.391V68.6h-2.871v2.098
			c0,0.155-0.057,0.286-0.171,0.391c-0.114,0.105-0.246,0.158-0.396,0.158c-0.162,0-0.296-0.053-0.401-0.158
			c-0.104-0.104-0.157-0.235-0.157-0.391v-5.202c0-0.156,0.054-0.287,0.162-0.392c0.108-0.105,0.246-0.157,0.414-0.157
			c0.15,0,0.279,0.052,0.387,0.157c0.108,0.104,0.162,0.235,0.162,0.392v2.069h2.871v-2.069c0-0.156,0.057-0.287,0.171-0.392
			c0.114-0.105,0.246-0.157,0.396-0.157C194.443,64.946,194.578,64.997,194.68,65.099z"/>
		<path fill="#3BE2CA" d="M198.847,71.088c-0.114,0.105-0.246,0.158-0.396,0.158c-0.162,0-0.296-0.053-0.401-0.158
			c-0.104-0.104-0.157-0.235-0.157-0.391v-5.202c0-0.156,0.054-0.287,0.162-0.392c0.108-0.105,0.246-0.157,0.414-0.157
			c0.15,0,0.279,0.052,0.387,0.157c0.108,0.104,0.162,0.235,0.162,0.392v5.202C199.018,70.853,198.961,70.983,198.847,71.088z"/>
		<path fill="#3BE2CA" d="M206.768,65.711c0,0.126-0.045,0.249-0.136,0.369c-0.096,0.126-0.219,0.188-0.368,0.188
			c-0.103,0-0.204-0.026-0.307-0.081c-0.294-0.138-0.611-0.207-0.954-0.207c-0.42,0-0.786,0.089-1.098,0.266
			c-0.312,0.178-0.552,0.427-0.72,0.747c-0.168,0.321-0.252,0.688-0.252,1.103c0,0.708,0.19,1.245,0.571,1.611
			s0.881,0.549,1.498,0.549c0.366,0,0.685-0.069,0.954-0.207c0.108-0.048,0.204-0.072,0.288-0.072c0.156,0,0.288,0.066,0.396,0.198
			c0.09,0.114,0.135,0.237,0.135,0.369c0,0.096-0.024,0.183-0.072,0.261s-0.117,0.139-0.207,0.18
			c-0.468,0.234-0.966,0.352-1.494,0.352c-0.588,0-1.128-0.125-1.619-0.374c-0.492-0.248-0.886-0.616-1.18-1.103
			c-0.294-0.485-0.44-1.073-0.44-1.764c0-0.612,0.139-1.161,0.418-1.646c0.279-0.486,0.665-0.866,1.156-1.139
			c0.492-0.273,1.048-0.41,1.665-0.41c0.534,0,1.029,0.117,1.485,0.352C206.674,65.348,206.768,65.501,206.768,65.711z"/>
		<path fill="#3BE2CA" d="M217.814,65.364c0.405,0.279,0.714,0.657,0.928,1.134c0.213,0.478,0.319,1.01,0.319,1.598
			s-0.106,1.121-0.319,1.598c-0.214,0.477-0.522,0.855-0.928,1.134c-0.404,0.279-0.89,0.419-1.453,0.419h-2.151
			c-0.155,0-0.286-0.053-0.392-0.158c-0.104-0.104-0.157-0.235-0.157-0.391v-5.202c0-0.156,0.053-0.287,0.157-0.392
			c0.105-0.105,0.236-0.157,0.392-0.157h2.151C216.925,64.946,217.41,65.085,217.814,65.364z M217.486,69.612
			c0.27-0.398,0.405-0.904,0.405-1.517s-0.137-1.117-0.41-1.517c-0.272-0.398-0.676-0.599-1.21-0.599h-1.485v4.23h1.485
			C216.812,70.211,217.217,70.012,217.486,69.612z"/>
		<path fill="#3BE2CA" d="M225.762,70.368c0.104,0.105,0.157,0.227,0.157,0.364c0,0.15-0.053,0.273-0.157,0.369
			c-0.105,0.097-0.236,0.145-0.392,0.145h-3.016c-0.155,0-0.286-0.053-0.392-0.158c-0.104-0.104-0.157-0.235-0.157-0.391v-5.202
			c0-0.156,0.053-0.287,0.157-0.392c0.105-0.105,0.236-0.157,0.392-0.157h3.016c0.155,0,0.286,0.049,0.392,0.148
			c0.104,0.099,0.157,0.227,0.157,0.382c0,0.15-0.051,0.271-0.153,0.365c-0.102,0.093-0.233,0.139-0.396,0.139h-2.439v1.53h2.034
			c0.156,0,0.286,0.05,0.392,0.148c0.104,0.1,0.157,0.227,0.157,0.383c0,0.15-0.051,0.271-0.152,0.364
			c-0.103,0.093-0.234,0.14-0.396,0.14h-2.034v1.665h2.439C225.525,70.211,225.656,70.264,225.762,70.368z"/>
		<path fill="#3BE2CA" d="M229.537,71.174c-0.336-0.108-0.651-0.291-0.945-0.549c-0.161-0.145-0.242-0.303-0.242-0.478
			c0-0.138,0.051-0.259,0.152-0.364c0.103-0.104,0.226-0.157,0.369-0.157c0.114,0,0.216,0.036,0.307,0.107
			c0.239,0.198,0.474,0.343,0.701,0.433c0.229,0.09,0.498,0.135,0.811,0.135c0.336,0,0.625-0.075,0.868-0.225
			c0.243-0.15,0.364-0.336,0.364-0.559c0-0.27-0.12-0.481-0.359-0.634c-0.24-0.153-0.621-0.269-1.144-0.347
			c-1.313-0.192-1.971-0.805-1.971-1.836c0-0.378,0.099-0.707,0.297-0.985c0.198-0.279,0.468-0.492,0.811-0.64
			c0.342-0.146,0.723-0.221,1.143-0.221c0.378,0,0.733,0.058,1.066,0.171c0.333,0.114,0.61,0.265,0.833,0.45
			c0.174,0.139,0.261,0.297,0.261,0.478c0,0.138-0.051,0.26-0.153,0.364c-0.102,0.105-0.222,0.157-0.359,0.157
			c-0.091,0-0.172-0.026-0.243-0.081c-0.156-0.126-0.374-0.241-0.652-0.346c-0.279-0.105-0.53-0.158-0.752-0.158
			c-0.378,0-0.671,0.071-0.878,0.212s-0.31,0.325-0.31,0.554c0,0.258,0.106,0.453,0.319,0.585s0.547,0.239,1.003,0.323
			c0.517,0.091,0.929,0.206,1.237,0.347c0.31,0.142,0.542,0.333,0.698,0.576c0.155,0.243,0.233,0.565,0.233,0.968
			c0,0.378-0.106,0.709-0.319,0.994s-0.496,0.504-0.851,0.657c-0.354,0.153-0.734,0.229-1.143,0.229
			C230.257,71.336,229.873,71.282,229.537,71.174z"/>
		<path fill="#3BE2CA" d="M236.7,71.088c-0.114,0.105-0.246,0.158-0.396,0.158c-0.162,0-0.296-0.053-0.401-0.158
			c-0.104-0.104-0.157-0.235-0.157-0.391v-5.202c0-0.156,0.054-0.287,0.162-0.392c0.108-0.105,0.246-0.157,0.414-0.157
			c0.15,0,0.279,0.052,0.387,0.157c0.108,0.104,0.162,0.235,0.162,0.392v5.202C236.871,70.853,236.814,70.983,236.7,71.088z"/>
		<path fill="#3BE2CA" d="M244.963,68.001c0.102,0.105,0.153,0.236,0.153,0.392v1.908c0,0.21-0.094,0.372-0.279,0.486
			c-0.588,0.366-1.233,0.549-1.936,0.549c-0.594,0-1.143-0.146-1.646-0.437s-0.903-0.684-1.197-1.179s-0.44-1.037-0.44-1.625
			s0.146-1.129,0.44-1.624s0.693-0.889,1.197-1.18s1.053-0.437,1.646-0.437c0.595,0,1.11,0.12,1.549,0.36
			c0.09,0.048,0.157,0.111,0.202,0.189c0.045,0.077,0.067,0.161,0.067,0.252c0,0.149-0.05,0.28-0.148,0.392
			c-0.099,0.11-0.221,0.166-0.364,0.166c-0.09,0-0.189-0.023-0.297-0.072c-0.324-0.138-0.66-0.207-1.009-0.207
			c-0.384,0-0.737,0.098-1.062,0.293s-0.58,0.457-0.77,0.787s-0.283,0.69-0.283,1.08c0,0.391,0.094,0.75,0.283,1.08
			s0.445,0.593,0.77,0.787c0.324,0.195,0.678,0.293,1.062,0.293c0.168,0,0.349-0.015,0.54-0.045c0.192-0.03,0.36-0.069,0.505-0.117
			v-1.17H243.1c-0.156,0-0.286-0.051-0.392-0.153c-0.104-0.102-0.157-0.23-0.157-0.387s0.053-0.285,0.157-0.387
			c0.105-0.103,0.235-0.153,0.392-0.153h1.477C244.731,67.844,244.86,67.896,244.963,68.001z"/>
		<path fill="#3BE2CA" d="M253.035,65.09c0.09,0.096,0.136,0.216,0.136,0.36v5.247c0,0.155-0.053,0.286-0.158,0.391
			c-0.104,0.105-0.235,0.158-0.392,0.158c-0.084,0-0.166-0.014-0.247-0.041c-0.081-0.026-0.14-0.064-0.176-0.112l-3.303-4.194v3.844
			c0,0.144-0.047,0.264-0.14,0.359c-0.093,0.097-0.215,0.145-0.364,0.145c-0.145,0-0.261-0.048-0.352-0.145
			c-0.09-0.096-0.135-0.216-0.135-0.359v-5.247c0-0.156,0.053-0.287,0.157-0.392c0.105-0.105,0.236-0.157,0.392-0.157
			c0.091,0,0.179,0.018,0.266,0.054s0.151,0.084,0.193,0.144l3.276,4.177v-3.87c0-0.145,0.047-0.265,0.14-0.36
			s0.211-0.144,0.355-0.144C252.828,64.946,252.945,64.994,253.035,65.09z"/>
	</g>
	<g>
		<path fill="#FFFFFF" d="M98.252,10.459c0.34,0.32,0.51,0.74,0.51,1.26s-0.17,0.936-0.51,1.244
			c-0.342,0.311-0.781,0.466-1.32,0.466h-4.711v15.72c0,0.521-0.189,0.955-0.57,1.305c-0.379,0.351-0.85,0.525-1.408,0.525
			c-0.561,0-1.021-0.175-1.381-0.525c-0.359-0.35-0.539-0.784-0.539-1.305v-15.72h-4.711c-0.539,0-0.98-0.16-1.32-0.479
			c-0.34-0.32-0.51-0.74-0.51-1.261c0-0.499,0.176-0.909,0.525-1.229s0.785-0.48,1.305-0.48h13.32
			C97.471,9.979,97.91,10.139,98.252,10.459z"/>
		<path fill="#FFFFFF" d="M106.59,30.453c-0.379,0.351-0.82,0.525-1.318,0.525c-0.541,0-0.986-0.175-1.336-0.525
			c-0.35-0.35-0.525-0.784-0.525-1.305v-17.34c0-0.52,0.18-0.955,0.541-1.305c0.359-0.35,0.818-0.525,1.379-0.525
			c0.5,0,0.93,0.176,1.291,0.525c0.359,0.35,0.539,0.785,0.539,1.305v17.34C107.16,29.669,106.971,30.104,106.59,30.453z"/>
		<path fill="#FFFFFF" d="M116.91,13.429v5.28h6.48c0.52,0,0.955,0.164,1.305,0.494s0.525,0.756,0.525,1.275
			c0,0.439-0.176,0.83-0.525,1.17s-0.785,0.51-1.305,0.51h-6.48v6.99c0,0.521-0.186,0.955-0.555,1.305
			c-0.371,0.351-0.805,0.525-1.305,0.525c-0.561,0-1.016-0.17-1.365-0.51s-0.525-0.78-0.525-1.32v-17.34
			c0-0.52,0.176-0.955,0.525-1.305s0.785-0.525,1.305-0.525h9.75c0.52,0,0.955,0.165,1.305,0.495s0.525,0.755,0.525,1.274
			c0,0.44-0.176,0.83-0.525,1.17c-0.35,0.341-0.785,0.511-1.305,0.511H116.91z"/>
		<path fill="#FFFFFF" d="M135.271,13.429v5.28h6.48c0.52,0,0.953,0.164,1.305,0.494c0.35,0.33,0.523,0.756,0.523,1.275
			c0,0.439-0.174,0.83-0.523,1.17c-0.352,0.34-0.785,0.51-1.305,0.51h-6.48v6.99c0,0.521-0.186,0.955-0.555,1.305
			c-0.371,0.351-0.807,0.525-1.307,0.525c-0.559,0-1.014-0.17-1.363-0.51c-0.352-0.34-0.525-0.78-0.525-1.32v-17.34
			c0-0.52,0.174-0.955,0.525-1.305c0.35-0.35,0.783-0.525,1.305-0.525h9.75c0.52,0,0.955,0.165,1.305,0.495s0.525,0.755,0.525,1.274
			c0,0.44-0.176,0.83-0.525,1.17c-0.35,0.341-0.785,0.511-1.305,0.511H135.271z"/>
		<path fill="#FFFFFF" d="M165.541,29.358c0,0.521-0.17,0.945-0.51,1.274c-0.342,0.33-0.73,0.496-1.17,0.496
			c-0.361,0-0.686-0.11-0.977-0.33c-0.289-0.221-0.514-0.52-0.674-0.9l-1.561-3.63h-8.939l-1.561,3.66
			c-0.141,0.38-0.355,0.675-0.645,0.885c-0.291,0.21-0.605,0.315-0.945,0.315c-0.52,0-0.916-0.141-1.186-0.42
			c-0.27-0.28-0.404-0.66-0.404-1.141c0-0.18,0.029-0.369,0.09-0.57l7.471-17.939c0.158-0.4,0.398-0.71,0.719-0.93
			c0.32-0.221,0.68-0.311,1.08-0.271c0.359,0,0.695,0.104,1.006,0.315c0.309,0.209,0.535,0.505,0.674,0.885l7.381,17.58
			C165.49,28.898,165.541,29.139,165.541,29.358z M153.18,22.818h6l-3.029-7.02L153.18,22.818z"/>
		<path fill="#FFFFFF" d="M186.689,10.459c0.301,0.32,0.451,0.72,0.451,1.199v17.49c0,0.521-0.176,0.955-0.525,1.305
			c-0.35,0.351-0.785,0.525-1.305,0.525c-0.281,0-0.555-0.045-0.826-0.135c-0.27-0.09-0.465-0.215-0.584-0.375l-11.01-13.98v12.811
			c0,0.479-0.156,0.88-0.465,1.199c-0.311,0.32-0.715,0.48-1.215,0.48c-0.48,0-0.871-0.16-1.17-0.48
			c-0.301-0.319-0.451-0.72-0.451-1.199v-17.49c0-0.52,0.176-0.955,0.525-1.305s0.785-0.525,1.305-0.525
			c0.301,0,0.596,0.061,0.885,0.18c0.291,0.12,0.506,0.281,0.646,0.48l10.92,13.92v-12.9c0-0.479,0.154-0.879,0.465-1.199
			c0.309-0.32,0.705-0.48,1.184-0.48C186,9.979,186.391,10.139,186.689,10.459z"/>
		<path fill="#FFFFFF" d="M207.99,12.858l-6.27,8.97v7.32c0,0.521-0.17,0.955-0.51,1.305c-0.342,0.351-0.75,0.525-1.23,0.525
			c-0.5,0-0.926-0.175-1.275-0.525c-0.35-0.35-0.525-0.784-0.525-1.305v-7.74l-6.24-8.279c-0.359-0.48-0.539-0.95-0.539-1.41
			c0-0.52,0.205-0.955,0.615-1.305s0.844-0.525,1.305-0.525c0.559,0,1.051,0.28,1.471,0.84l5.279,7.29l4.949-7.229
			c0.42-0.601,0.92-0.9,1.5-0.9c0.48,0,0.9,0.18,1.26,0.54c0.361,0.36,0.541,0.8,0.541,1.319
			C208.32,12.148,208.211,12.519,207.99,12.858z"/>
	</g>
	<g>
		<path fill="#FFFFFF" d="M99.752,59.298c0,0.521-0.17,0.945-0.51,1.274c-0.342,0.33-0.73,0.496-1.17,0.496
			c-0.361,0-0.686-0.11-0.977-0.33c-0.289-0.221-0.514-0.52-0.674-0.9l-1.561-3.63h-8.939l-1.561,3.66
			c-0.141,0.38-0.355,0.675-0.645,0.885c-0.291,0.21-0.605,0.315-0.945,0.315c-0.52,0-0.916-0.141-1.186-0.42
			c-0.27-0.28-0.404-0.66-0.404-1.141c0-0.18,0.029-0.369,0.09-0.57l7.471-17.939c0.158-0.4,0.398-0.71,0.719-0.93
			c0.32-0.221,0.68-0.311,1.08-0.271c0.359,0,0.695,0.104,1.006,0.315c0.309,0.209,0.535,0.505,0.674,0.885l7.381,17.58
			C99.701,58.838,99.752,59.078,99.752,59.298z M87.391,52.758h6l-3.029-7.02L87.391,52.758z"/>
		<path fill="#FFFFFF" d="M120.9,40.398c0.301,0.32,0.451,0.72,0.451,1.199v17.49c0,0.521-0.176,0.955-0.525,1.305
			c-0.35,0.351-0.785,0.525-1.305,0.525c-0.281,0-0.555-0.045-0.826-0.135c-0.27-0.09-0.465-0.215-0.584-0.375l-11.01-13.98v12.811
			c0,0.479-0.156,0.88-0.465,1.199c-0.311,0.32-0.715,0.48-1.215,0.48c-0.48,0-0.871-0.16-1.17-0.48
			c-0.301-0.319-0.451-0.72-0.451-1.199v-17.49c0-0.52,0.176-0.955,0.525-1.305s0.785-0.525,1.305-0.525
			c0.301,0,0.596,0.061,0.885,0.18c0.291,0.12,0.506,0.281,0.646,0.48l10.92,13.92v-12.9c0-0.479,0.154-0.879,0.465-1.199
			c0.309-0.32,0.705-0.48,1.184-0.48C120.211,39.918,120.602,40.078,120.9,40.398z"/>
		<path fill="#FFFFFF" d="M144.451,40.398c0.301,0.32,0.449,0.72,0.449,1.199v17.49c0,0.521-0.174,0.955-0.523,1.305
			c-0.352,0.351-0.785,0.525-1.307,0.525c-0.279,0-0.555-0.045-0.824-0.135s-0.465-0.215-0.586-0.375l-11.01-13.98v12.811
			c0,0.479-0.154,0.88-0.465,1.199c-0.311,0.32-0.715,0.48-1.215,0.48c-0.48,0-0.869-0.16-1.17-0.48
			c-0.299-0.319-0.449-0.72-0.449-1.199v-17.49c0-0.52,0.174-0.955,0.525-1.305c0.35-0.35,0.783-0.525,1.305-0.525
			c0.299,0,0.594,0.061,0.885,0.18c0.289,0.12,0.504,0.281,0.645,0.48l10.92,13.92v-12.9c0-0.479,0.154-0.879,0.465-1.199
			s0.705-0.48,1.186-0.48S144.15,40.078,144.451,40.398z"/>
		<path fill="#FFFFFF" d="M163.711,60.678c-1.121-0.359-2.172-0.97-3.15-1.83c-0.541-0.479-0.811-1.01-0.811-1.59
			c0-0.459,0.17-0.865,0.51-1.215s0.75-0.525,1.23-0.525c0.379,0,0.721,0.121,1.02,0.36c0.801,0.66,1.58,1.14,2.34,1.44
			c0.76,0.3,1.66,0.449,2.701,0.449c1.119,0,2.084-0.25,2.895-0.75s1.215-1.119,1.215-1.859c0-0.9-0.4-1.605-1.199-2.115
			c-0.801-0.51-2.07-0.895-3.811-1.154c-4.381-0.641-6.57-2.681-6.57-6.121c0-1.26,0.33-2.354,0.99-3.285
			c0.66-0.93,1.561-1.639,2.699-2.129c1.141-0.49,2.41-0.735,3.811-0.735c1.26,0,2.445,0.19,3.555,0.569
			c1.111,0.381,2.035,0.881,2.775,1.5c0.58,0.461,0.871,0.99,0.871,1.59c0,0.461-0.172,0.865-0.512,1.216s-0.74,0.524-1.199,0.524
			c-0.301,0-0.57-0.09-0.811-0.27c-0.52-0.42-1.244-0.805-2.174-1.155c-0.93-0.35-1.766-0.524-2.506-0.524
			c-1.26,0-2.234,0.234-2.924,0.705c-0.691,0.47-1.035,1.084-1.035,1.845c0,0.86,0.354,1.511,1.064,1.95
			c0.709,0.439,1.824,0.8,3.346,1.08c1.719,0.299,3.094,0.686,4.125,1.154c1.029,0.471,1.805,1.11,2.324,1.92
			c0.52,0.811,0.779,1.886,0.779,3.225c0,1.261-0.355,2.366-1.064,3.316c-0.711,0.949-1.654,1.68-2.836,2.189
			c-1.18,0.51-2.449,0.765-3.809,0.765C166.109,61.218,164.83,61.038,163.711,60.678z"/>
		<path fill="#FFFFFF" d="M199.725,40.413c0.369,0.351,0.555,0.785,0.555,1.305v17.37c0,0.521-0.17,0.955-0.51,1.305
			c-0.34,0.351-0.791,0.525-1.35,0.525c-0.561,0-1.016-0.17-1.365-0.51s-0.525-0.78-0.525-1.32v-12.09l-4.949,7.561
			c-0.201,0.239-0.432,0.435-0.691,0.584c-0.26,0.15-0.529,0.215-0.809,0.195c-0.262,0.02-0.521-0.045-0.781-0.195
			c-0.26-0.149-0.49-0.345-0.689-0.584l-4.949-7.83v12.359c0,0.54-0.16,0.98-0.48,1.32s-0.74,0.51-1.26,0.51
			c-0.5,0-0.91-0.175-1.23-0.525c-0.32-0.35-0.48-0.784-0.48-1.305v-17.37c0-0.499,0.186-0.93,0.555-1.29
			c0.371-0.359,0.816-0.539,1.336-0.539c0.301,0,0.6,0.074,0.9,0.225c0.299,0.15,0.529,0.345,0.689,0.584l6.539,10.051l6.721-10.051
			c0.16-0.239,0.375-0.434,0.645-0.584c0.271-0.15,0.545-0.225,0.826-0.225C198.92,39.889,199.354,40.063,199.725,40.413z"/>
		<path fill="#FFFFFF" d="M209.459,60.393c-0.379,0.351-0.82,0.525-1.318,0.525c-0.541,0-0.986-0.175-1.336-0.525
			c-0.35-0.35-0.525-0.784-0.525-1.305v-17.34c0-0.52,0.18-0.955,0.541-1.305c0.359-0.35,0.818-0.525,1.379-0.525
			c0.5,0,0.93,0.176,1.291,0.525c0.359,0.35,0.539,0.785,0.539,1.305v17.34C210.029,59.608,209.84,60.043,209.459,60.393z"/>
		<path fill="#FFFFFF" d="M231.148,40.398c0.34,0.32,0.51,0.74,0.51,1.26s-0.17,0.936-0.51,1.244
			c-0.34,0.311-0.779,0.466-1.32,0.466h-4.709v15.72c0,0.521-0.191,0.955-0.57,1.305c-0.381,0.351-0.85,0.525-1.41,0.525
			s-1.02-0.175-1.379-0.525c-0.361-0.35-0.541-0.784-0.541-1.305v-15.72h-4.709c-0.541,0-0.98-0.16-1.32-0.479
			c-0.342-0.32-0.51-0.74-0.51-1.261c0-0.499,0.174-0.909,0.523-1.229s0.785-0.48,1.307-0.48h13.318
			C230.369,39.918,230.809,40.078,231.148,40.398z"/>
		<path fill="#FFFFFF" d="M252.869,40.428c0.34,0.34,0.51,0.78,0.51,1.32v17.34c0,0.521-0.18,0.955-0.539,1.305
			c-0.361,0.351-0.82,0.525-1.381,0.525c-0.5,0-0.93-0.175-1.289-0.525c-0.361-0.35-0.541-0.784-0.541-1.305v-6.99h-9.57v6.99
			c0,0.521-0.189,0.955-0.57,1.305c-0.379,0.351-0.82,0.525-1.318,0.525c-0.541,0-0.986-0.175-1.336-0.525
			c-0.35-0.35-0.525-0.784-0.525-1.305v-17.34c0-0.52,0.18-0.955,0.541-1.305c0.359-0.35,0.818-0.525,1.379-0.525
			c0.5,0,0.93,0.176,1.291,0.525c0.359,0.35,0.539,0.785,0.539,1.305v6.9h9.57v-6.9c0-0.52,0.189-0.955,0.57-1.305
			c0.379-0.35,0.82-0.525,1.32-0.525C252.078,39.918,252.529,40.088,252.869,40.428z"/>
	</g>
</g>
</svg>
